<svg width="36" height="12" viewBox="0 0 36 12" fill="none" xmlns="http://www.w3.org/2000/svg">
<path d="M1.40918 5.25L0.65918 5.25L0.65918 6.75L1.40918 6.75L1.40918 5.25ZM35.639 6.53033C35.9319 6.23744 35.9319 5.76257 35.639 5.46967L30.866 0.696701C30.5731 0.403808 30.0983 0.403808 29.8054 0.696701C29.5125 0.989594 29.5125 1.46447 29.8054 1.75736L34.048 6L29.8054 10.2426C29.5125 10.5355 29.5125 11.0104 29.8054 11.3033C30.0983 11.5962 30.5731 11.5962 30.866 11.3033L35.639 6.53033ZM1.40918 6.75L35.1087 6.75L35.1087 5.25L1.40918 5.25L1.40918 6.75Z" fill="white"/>
</svg>
